<mxfile host="app.diagrams.net" modified="2023-05-24T11:32:27.490Z" agent="Mozilla/5.0 (Windows NT 10.0; Win64; x64; rv:109.0) Gecko/20100101 Firefox/113.0" etag="IruHSTi9fBir41i-xiKe" version="21.3.3" type="github">
  <diagram name="Página-1" id="UL3M9mwlWEfMVBum09Yx">
    <mxGraphModel dx="989" dy="520" grid="1" gridSize="10" guides="1" tooltips="1" connect="1" arrows="1" fold="1" page="1" pageScale="1" pageWidth="827" pageHeight="1169" math="0" shadow="0">
      <root>
        <mxCell id="0" />
        <mxCell id="1" parent="0" />
        <mxCell id="5jjuN3tvRof1VrpKkx27-1" value="cata-bagulho" style="shape=umlActor;verticalLabelPosition=bottom;verticalAlign=top;html=1;outlineConnect=0;" vertex="1" parent="1">
          <mxGeometry x="90" y="240" width="30" height="60" as="geometry" />
        </mxCell>
        <mxCell id="5jjuN3tvRof1VrpKkx27-3" value="Iniciar Rota" style="ellipse;whiteSpace=wrap;html=1;" vertex="1" parent="1">
          <mxGeometry x="200" y="220" width="120" height="80" as="geometry" />
        </mxCell>
        <mxCell id="5jjuN3tvRof1VrpKkx27-4" value="Notificar" style="ellipse;whiteSpace=wrap;html=1;" vertex="1" parent="1">
          <mxGeometry x="480" y="220" width="120" height="80" as="geometry" />
        </mxCell>
        <mxCell id="5jjuN3tvRof1VrpKkx27-5" value="Consultar informações" style="ellipse;whiteSpace=wrap;html=1;" vertex="1" parent="1">
          <mxGeometry x="340" y="330" width="120" height="80" as="geometry" />
        </mxCell>
        <mxCell id="5jjuN3tvRof1VrpKkx27-7" value="Usuario" style="shape=umlActor;verticalLabelPosition=bottom;verticalAlign=top;html=1;outlineConnect=0;" vertex="1" parent="1">
          <mxGeometry x="680" y="240" width="30" height="60" as="geometry" />
        </mxCell>
        <mxCell id="5jjuN3tvRof1VrpKkx27-10" value="" style="endArrow=classic;html=1;rounded=0;entryX=0;entryY=0.5;entryDx=0;entryDy=0;" edge="1" parent="1" source="5jjuN3tvRof1VrpKkx27-1" target="5jjuN3tvRof1VrpKkx27-3">
          <mxGeometry width="50" height="50" relative="1" as="geometry">
            <mxPoint x="300" y="440" as="sourcePoint" />
            <mxPoint x="350" y="390" as="targetPoint" />
          </mxGeometry>
        </mxCell>
        <mxCell id="5jjuN3tvRof1VrpKkx27-11" value="depends" style="endArrow=none;dashed=1;html=1;rounded=0;exitX=1;exitY=0.5;exitDx=0;exitDy=0;entryX=0;entryY=0.5;entryDx=0;entryDy=0;" edge="1" parent="1" source="5jjuN3tvRof1VrpKkx27-3" target="5jjuN3tvRof1VrpKkx27-4">
          <mxGeometry width="50" height="50" relative="1" as="geometry">
            <mxPoint x="300" y="440" as="sourcePoint" />
            <mxPoint x="350" y="390" as="targetPoint" />
          </mxGeometry>
        </mxCell>
        <mxCell id="5jjuN3tvRof1VrpKkx27-13" value="" style="endArrow=classic;html=1;rounded=0;exitX=1;exitY=0.5;exitDx=0;exitDy=0;" edge="1" parent="1" source="5jjuN3tvRof1VrpKkx27-4">
          <mxGeometry width="50" height="50" relative="1" as="geometry">
            <mxPoint x="300" y="440" as="sourcePoint" />
            <mxPoint x="660" y="270" as="targetPoint" />
          </mxGeometry>
        </mxCell>
        <mxCell id="5jjuN3tvRof1VrpKkx27-14" value="" style="endArrow=classic;html=1;rounded=0;entryX=0;entryY=0.5;entryDx=0;entryDy=0;" edge="1" parent="1" source="5jjuN3tvRof1VrpKkx27-1" target="5jjuN3tvRof1VrpKkx27-5">
          <mxGeometry width="50" height="50" relative="1" as="geometry">
            <mxPoint x="300" y="440" as="sourcePoint" />
            <mxPoint x="350" y="390" as="targetPoint" />
          </mxGeometry>
        </mxCell>
        <mxCell id="5jjuN3tvRof1VrpKkx27-15" value="" style="endArrow=classic;html=1;rounded=0;entryX=1;entryY=0.5;entryDx=0;entryDy=0;" edge="1" parent="1" source="5jjuN3tvRof1VrpKkx27-7" target="5jjuN3tvRof1VrpKkx27-5">
          <mxGeometry width="50" height="50" relative="1" as="geometry">
            <mxPoint x="300" y="440" as="sourcePoint" />
            <mxPoint x="350" y="390" as="targetPoint" />
          </mxGeometry>
        </mxCell>
        <mxCell id="5jjuN3tvRof1VrpKkx27-16" value="Efetuar login" style="ellipse;whiteSpace=wrap;html=1;" vertex="1" parent="1">
          <mxGeometry x="340" y="20" width="120" height="80" as="geometry" />
        </mxCell>
        <mxCell id="5jjuN3tvRof1VrpKkx27-17" value="" style="endArrow=classic;html=1;rounded=0;exitX=1;exitY=0.3333333333333333;exitDx=0;exitDy=0;exitPerimeter=0;entryX=0;entryY=0.5;entryDx=0;entryDy=0;" edge="1" parent="1" source="5jjuN3tvRof1VrpKkx27-1" target="5jjuN3tvRof1VrpKkx27-16">
          <mxGeometry width="50" height="50" relative="1" as="geometry">
            <mxPoint x="300" y="400" as="sourcePoint" />
            <mxPoint x="350" y="350" as="targetPoint" />
          </mxGeometry>
        </mxCell>
        <mxCell id="5jjuN3tvRof1VrpKkx27-18" value="" style="endArrow=classic;html=1;rounded=0;entryX=1;entryY=0.5;entryDx=0;entryDy=0;exitX=0;exitY=0.3333333333333333;exitDx=0;exitDy=0;exitPerimeter=0;" edge="1" parent="1" source="5jjuN3tvRof1VrpKkx27-7" target="5jjuN3tvRof1VrpKkx27-16">
          <mxGeometry width="50" height="50" relative="1" as="geometry">
            <mxPoint x="300" y="400" as="sourcePoint" />
            <mxPoint x="350" y="350" as="targetPoint" />
          </mxGeometry>
        </mxCell>
        <mxCell id="5jjuN3tvRof1VrpKkx27-19" value="localizar cata-bagulho" style="ellipse;whiteSpace=wrap;html=1;" vertex="1" parent="1">
          <mxGeometry x="340" y="120" width="120" height="80" as="geometry" />
        </mxCell>
        <mxCell id="5jjuN3tvRof1VrpKkx27-20" value="depends" style="endArrow=none;dashed=1;html=1;rounded=0;entryX=0;entryY=1;entryDx=0;entryDy=0;exitX=1;exitY=0;exitDx=0;exitDy=0;" edge="1" parent="1" source="5jjuN3tvRof1VrpKkx27-3" target="5jjuN3tvRof1VrpKkx27-19">
          <mxGeometry width="50" height="50" relative="1" as="geometry">
            <mxPoint x="300" y="300" as="sourcePoint" />
            <mxPoint x="350" y="250" as="targetPoint" />
          </mxGeometry>
        </mxCell>
        <mxCell id="5jjuN3tvRof1VrpKkx27-21" value="" style="endArrow=classic;html=1;rounded=0;entryX=1;entryY=0.5;entryDx=0;entryDy=0;" edge="1" parent="1" source="5jjuN3tvRof1VrpKkx27-7" target="5jjuN3tvRof1VrpKkx27-19">
          <mxGeometry width="50" height="50" relative="1" as="geometry">
            <mxPoint x="300" y="300" as="sourcePoint" />
            <mxPoint x="350" y="250" as="targetPoint" />
          </mxGeometry>
        </mxCell>
      </root>
    </mxGraphModel>
  </diagram>
</mxfile>
